<?xml version="1.0" standalone="no"?>
<!DOCTYPE svg PUBLIC "-//W3C//DTD SVG 20010904//EN"
 "http://www.w3.org/TR/2001/REC-SVG-20010904/DTD/svg10.dtd">
<svg version="1.0" xmlns="http://www.w3.org/2000/svg"
 width="179.000000pt" height="179.000000pt" viewBox="0 0 179.000000 179.000000"
 preserveAspectRatio="xMidYMid meet">
<metadata>
Created by potrace 1.14, written by Peter Selinger 2001-2017
</metadata>
<g transform="translate(0.000000,179.000000) scale(0.100000,-0.100000)"
fill="#000000" stroke="none">
<path d="M409 1706 c-3 -3 -4 -1605 -1 -1623 3 -16 9 -20 26 -17 21 4 111 12
216 19 30 2 60 4 66 4 7 1 10 111 10 345 -1 292 1 341 12 320 7 -14 15 -35 17
-47 3 -11 8 -23 12 -26 7 -5 12 -19 17 -46 1 -5 5 -16 9 -22 5 -7 6 -13 2 -13
-3 0 1 -13 10 -30 9 -16 13 -30 9 -30 -4 0 -2 -6 4 -12 11 -14 75 -196 75
-215 0 -7 4 -13 9 -13 4 0 8 -11 8 -25 0 -14 5 -25 12 -25 6 0 9 -3 5 -6 -6
-6 15 -71 34 -107 5 -10 7 -22 4 -26 -8 -14 25 -24 90 -26 54 -2 215 -14 240
-18 7 -1 11 277 12 816 1 609 -2 817 -10 818 -7 1 -80 2 -162 3 l-150 2 0
-336 c0 -184 4 -341 8 -347 6 -9 3 -11 -7 -7 -9 3 -16 7 -16 8 0 0 -11 31 -24
69 -14 37 -22 67 -19 67 3 0 1 6 -5 13 -5 6 -19 41 -31 77 -13 36 -25 72 -28
80 -4 8 -7 17 -8 20 -1 3 -4 12 -7 20 -27 73 -43 116 -44 123 -1 4 -3 9 -4 12
-1 3 -4 10 -5 15 -1 6 -3 11 -5 13 -1 1 -3 9 -5 17 -2 8 -9 29 -16 45 -7 17
-12 33 -11 38 1 4 -3 7 -9 7 -5 0 -8 4 -4 9 3 5 0 20 -6 33 -10 23 -12 24
-170 25 -87 0 -159 0 -160 -1z"/>
</g>
</svg>
